<?xml version="1.0" encoding="UTF-8"?>
<svg version="1.1" xmlns="http://www.w3.org/2000/svg" width="998" height="998">
<path d="M0 0 C0.6554694 -0.00282738 1.3109388 -0.00565475 1.9862709 -0.00856781 C5.4714826 -0.02344085 8.95665435 -0.03273885 12.44189453 -0.03710938 C15.24541604 -0.04144323 18.04862094 -0.05515149 20.85205078 -0.078125 C47.11529422 -0.28857541 72.96796883 1.40371662 98.8828125 5.953125 C99.61837372 6.07907043 100.35393494 6.20501587 101.11178589 6.33477783 C188.99960543 21.42408888 270.4355077 59.02098478 338.8203125 116.203125 C339.41118652 116.69490234 340.00206055 117.18667969 340.61083984 117.69335938 C357.34742124 131.66460425 374.09603142 146.63408702 388.19921875 163.3046875 C390.101249 165.53212533 392.0863897 167.67335471 394.0703125 169.828125 C399.10480316 175.41445697 403.69996722 181.29480068 408.29296875 187.24316406 C409.86715429 189.26323464 411.46585407 191.26172208 413.0703125 193.2578125 C471.99823233 267.01297584 504.39584689 357.25679835 517.0234375 481.3828125 C517.02767857 482.3660166 517.02767857 482.3660166 517.03200531 483.3690834 C517.04687835 486.8542951 517.05617635 490.33946685 517.06054688 493.82470703 C517.06488073 496.62822854 517.07858899 499.43143344 517.1015625 502.23486328 C517.31201291 528.49810672 515.61972088 554.35078133 511.0703125 580.265625 C510.88139435 581.36896683 510.88139435 581.36896683 510.68865967 582.49459839 C495.59934862 670.38241793 458.00245272 751.8183202 400.8203125 820.203125 C400.32853516 820.79399902 399.83675781 821.38487305 399.33007812 821.99365234 C385.35883325 838.73023374 370.38935048 855.47884392 353.71875 869.58203125 C351.49131217 871.4840615 349.35008279 873.4692022 347.1953125 875.453125 C341.60898053 880.48761566 335.72863682 885.08277972 329.78027344 889.67578125 C327.76020286 891.24996679 325.76171542 892.84866657 323.765625 894.453125 C250.01046166 953.38104483 159.76663915 985.77865939 35.640625 998.40625 C34.9851556 998.40907738 34.3296862 998.41190475 33.6543541 998.41481781 C30.1691424 998.42969085 26.68397065 998.43898885 23.19873047 998.44335938 C20.39520896 998.44769323 17.59200406 998.46140149 14.78857422 998.484375 C-11.47466922 998.69482541 -37.32734383 997.00253338 -63.2421875 992.453125 C-63.97774872 992.32717957 -64.71330994 992.20123413 -65.47116089 992.07147217 C-153.35898043 976.98216112 -234.7948827 939.38526522 -303.1796875 882.203125 C-303.77056152 881.71134766 -304.36143555 881.21957031 -304.97021484 880.71289062 C-321.70679624 866.74164575 -338.45540642 851.77216298 -352.55859375 835.1015625 C-354.460624 832.87412467 -356.4457647 830.73289529 -358.4296875 828.578125 C-363.46417816 822.99179303 -368.05934222 817.11144932 -372.65234375 811.16308594 C-374.22652929 809.14301536 -375.82522907 807.14452792 -377.4296875 805.1484375 C-436.35760733 731.39327416 -468.75522189 641.14945165 -481.3828125 517.0234375 C-481.38563988 516.3679681 -481.38846725 515.7124987 -481.39138031 515.0371666 C-481.40625335 511.5519549 -481.41555135 508.06678315 -481.41992188 504.58154297 C-481.42425573 501.77802146 -481.43796399 498.97481656 -481.4609375 496.17138672 C-481.67138791 469.90814328 -479.97909588 444.05546867 -475.4296875 418.140625 C-475.30374207 417.40506378 -475.17779663 416.66950256 -475.04803467 415.91165161 C-459.95872362 328.02383207 -422.36182772 246.5879298 -365.1796875 178.203125 C-364.44202148 177.31681396 -364.44202148 177.31681396 -363.68945312 176.41259766 C-349.71820825 159.67601626 -334.74872548 142.92740608 -318.078125 128.82421875 C-315.85068717 126.9221885 -313.70945779 124.9370478 -311.5546875 122.953125 C-305.96835553 117.91863434 -300.08801182 113.32347028 -294.13964844 108.73046875 C-292.11957786 107.15628321 -290.12109042 105.55758343 -288.125 103.953125 C-214.36983666 45.02520517 -124.12601415 12.62759061 0 0 Z " fill="#000000" transform="translate(481.1796875,-0.203125)"/>
<path d="M0 0 C1.75415039 0.95874023 1.75415039 0.95874023 3.34765625 2.30859375 C3.94626465 2.80351318 4.54487305 3.29843262 5.16162109 3.80834961 C5.78891113 4.34596924 6.41620117 4.88358887 7.0625 5.4375 C8.40894725 6.55354354 9.75661629 7.66811461 11.10546875 8.78125 C11.76853027 9.33296875 12.4315918 9.8846875 13.11474609 10.453125 C15.64366283 12.5281336 18.24738335 14.48950204 20.875 16.4375 C25.59179477 19.94212248 30.27320852 23.48855537 34.9375 27.0625 C41.45094492 32.05141158 47.97240252 37.02961848 54.5 42 C61.52179924 47.34743366 68.53766364 52.70248687 75.546875 58.06640625 C82.08792445 63.07055498 88.63961798 68.06069036 95.19213867 73.04980469 C99.31533524 76.18991993 103.43681463 79.33217361 107.55078125 82.484375 C108.27265625 83.03738281 108.99453125 83.59039062 109.73828125 84.16015625 C111.03180785 85.15161637 112.32485982 86.1436964 113.6171875 87.13671875 C114.22433594 87.60207031 114.83148438 88.06742187 115.45703125 88.546875 C116.10945801 89.07418213 116.76188477 89.60148926 117.43408203 90.14477539 C119.58813938 91.70221419 121.66044788 92.92898376 123.98388672 94.19702148 C129.372454 97.34602784 134.68140115 100.48359654 136.95913696 106.55780029 C138.52733101 113.81384347 138.47504583 121.17118219 138.5 128.5625 C138.56454291 130.77560817 138.63610646 132.98852323 138.71484375 135.20117188 C139.02235774 144.79972592 139.01577348 154.39738232 139 164 C138.15566406 164.00257813 137.31132812 164.00515625 136.44140625 164.0078125 C91.5381212 165.36440721 44.56037788 181.06696735 8 207 C6.0032624 208.33821401 4.00402985 209.67273132 2 211 C3.08764919 214.26294757 3.48851217 214.62169918 6.18359375 216.4609375 C6.85447021 216.92556396 7.52534668 217.39019043 8.21655273 217.86889648 C9.31592163 218.61441772 9.31592163 218.61441772 10.4375 219.375 C12.00068882 220.45603589 13.5631664 221.53810082 15.125 222.62109375 C15.93324219 223.17909668 16.74148438 223.73709961 17.57421875 224.31201172 C21.39707286 226.97215799 25.16781297 229.70276718 28.9375 232.4375 C30.44660703 233.52995836 31.95572165 234.62240622 33.46484375 235.71484375 C34.21362793 236.25737793 34.96241211 236.79991211 35.73388672 237.35888672 C39.486448 240.07648173 43.24343419 242.78794473 47 245.5 C48.50002146 246.58330362 50.00002146 247.66663696 51.5 248.75 C52.2425 249.28625 52.985 249.8225 53.75 250.375 C168.5 333.25 168.5 333.25 170.75097656 334.87573242 C172.24768701 335.95667191 173.74443168 337.03756401 175.24121094 338.1184082 C179.04182637 340.8629754 182.84180298 343.60841966 186.640625 346.35546875 C194.57472788 352.0915598 202.51826572 357.81312134 210.49609375 363.48828125 C215.35562469 366.95765162 220.17433418 370.48377868 225 374 C244.67506441 316.90433838 263.8663105 259.60514146 282 202 C281.34 201.76410156 280.68 201.52820313 280 201.28515625 C276.91747665 199.9646482 274.12469359 198.40428172 271.22802734 196.72558594 C260.52296341 190.53668419 249.45909328 185.61292573 238 181 C237.28070312 180.70609375 236.56140625 180.4121875 235.8203125 180.109375 C210.61609755 169.87318042 183.97548207 166.15576933 157 164 C156.97184253 160.73507373 156.97459093 157.47074711 156.99053955 154.20574951 C156.99731 152.6271871 157.00061971 151.04860834 157.00164795 149.47003174 C157.01415593 143.40850232 157.13777037 137.35893121 157.34790039 131.30102539 C157.4075666 129.14442513 157.43693139 126.98677089 157.43579102 124.8293457 C157.455679 107.39554018 157.455679 107.39554018 161.65496826 101.79135132 C165.59141037 97.93379595 170.02360799 95.07576988 174.78329468 92.33927917 C178.50117253 90.09302825 181.85003023 87.38136704 185.25 84.6875 C192.55983456 79.09579544 199.88034955 73.5181635 207.20214844 67.94213867 C212.63931983 63.80069071 218.07219804 59.65371867 223.5 55.5 C230.72634843 49.96991275 237.96384833 44.45455481 245.203125 38.94140625 C251.31469388 34.28624925 257.42004526 29.6230683 263.52050781 24.95336914 C267.52507488 21.8891246 271.53411762 18.83085711 275.546875 15.77734375 C276.49369141 15.05675781 277.44050781 14.33617188 278.41601562 13.59375 C280.26326244 12.1882638 282.11089977 10.78329066 283.95898438 9.37890625 C284.80267578 8.73695312 285.64636719 8.095 286.515625 7.43359375 C287.30904297 6.83659668 288.10246094 6.23959961 288.91992188 5.62451172 C291.16353317 3.92498562 291.16353317 3.92498562 293.671875 1.47265625 C297.0504123 -0.66443865 299.14187078 0.23792522 303 1 C305.12230446 1.71777485 307.22001402 2.51178278 309.2890625 3.37109375 C310.46710449 3.85763428 311.64514648 4.3441748 312.85888672 4.84545898 C314.11460586 5.37531523 315.36996933 5.90601508 316.625 6.4375 C317.5894101 6.84224045 317.5894101 6.84224045 318.57330322 7.25515747 C366.70042119 27.46007829 409.56626136 55.76439728 448 91 C448.54736816 91.49693359 449.09473633 91.99386719 449.65869141 92.50585938 C463.20486972 104.8198982 475.76627215 117.982695 487.41894531 132.10644531 C488.54187115 133.45132066 489.68102226 134.78272158 490.83105469 136.10449219 C492.7328082 138.29388956 494.58723175 140.51702838 496.4375 142.75 C497.0363501 143.42272949 497.6352002 144.09545898 498.25219727 144.78857422 C499.91871426 146.85595 501.0325763 148.52582382 502 151 C501.6427002 153.29171753 501.6427002 153.29171753 500.79492188 155.71826172 C500.50008408 156.59889282 500.20524628 157.47952393 499.901474 158.38684082 C499.45524437 159.68035461 499.45524437 159.68035461 499 161 C498.56858351 162.42247039 498.14501899 163.84735457 497.73071289 165.27490234 C493.53772932 179.38163454 489.14284578 193.42465447 484.74072266 207.46713257 C482.52074298 214.54875752 480.30541427 221.63183838 478.08984375 228.71484375 C477.76057199 229.76732394 477.76057199 229.76732394 477.42464828 230.84106636 C473.42808005 243.61650633 469.45382702 256.39876177 465.5 269.1875 C465.2410495 270.02492737 464.982099 270.86235474 464.71530151 271.72515869 C463.28716215 276.34365941 463.28716215 276.34365941 461.86401367 280.96369934 C460.86268994 284.22054955 459.84909539 287.47167373 458.81079102 290.71704102 C456.6643459 297.3179438 456.6643459 297.3179438 455.46484375 304.12890625 C454.79552353 308.48692454 453.945155 311.64880852 451 315 C444.69713679 319.34565129 437.33347548 321.89336176 430.21688843 324.59379578 C424.91299926 326.60991507 419.70409133 328.80879644 414.50390625 331.078125 C413.31039551 331.59820129 413.31039551 331.59820129 412.09277344 332.12878418 C410.49725157 332.82457384 408.90189318 333.52073847 407.30670166 334.21728516 C403.51094742 335.87182213 399.70928867 337.51201644 395.90234375 339.140625 C394.89790977 339.57559296 394.89790977 339.57559296 393.8731842 340.01934814 C389.2298564 342 389.2298564 342 387 342 C386.79020508 341.37359619 386.58041016 340.74719238 386.36425781 340.10180664 C376.30859447 310.39556645 363.03685907 282.32816706 343 258 C342.20980469 257.00742187 341.41960938 256.01484375 340.60546875 254.9921875 C328.47120995 239.97559743 314.51926133 226.46070111 299 215 C298.11054687 214.26652344 297.22109375 213.53304687 296.3046875 212.77734375 C294.0428228 210.83153419 294.0428228 210.83153419 291 210 C290.74798828 211.24193115 290.49597656 212.4838623 290.23632812 213.76342773 C288.9433254 219.56632162 287.09723099 225.14949811 285.21875 230.78515625 C284.66417114 232.46768494 284.66417114 232.46768494 284.09838867 234.1842041 C283.30996261 236.57546619 282.51971328 238.96612777 281.7277832 241.35623169 C279.6631965 247.58853089 277.61244656 253.82537258 275.5625 260.0625 C275.16067505 261.284496 274.7588501 262.506492 274.34484863 263.76551819 C271.31215044 273.00591256 268.36633608 282.269329 265.5 291.5625 C262.1152558 302.52761634 258.55201287 313.420165 254.88867188 324.29516602 C251.46826292 334.4918945 248.21768731 344.73769602 245 355 C241.43473596 366.36956061 237.80471036 377.70783443 234 389 C229.71833911 401.71463372 225.64435967 414.4877799 221.63671875 427.29101562 C216.85065367 442.55923733 211.91317203 457.76916672 207 473 C267.39 473 327.78 473 390 473 C391.485 464.585 391.485 464.585 393 456 C393.3081665 454.44498779 393.61633301 452.88997559 393.93383789 451.2878418 C396.18920603 439.56220181 396.49284359 428.03726598 396.44604492 416.1159668 C396.43755517 412.83382897 396.4663833 409.55345098 396.49804688 406.27148438 C396.53813926 393.41194241 395.40326443 381.3173406 392.85961914 368.7097168 C392.13893121 365.08292668 391.80591236 361.7130311 392 358 C403.2549999 354.4048244 414.52985634 350.91236712 425.87646484 347.61767578 C428.82896809 346.75887684 431.77913462 345.89221174 434.72900391 345.02441406 C436.18279458 344.5969231 437.63688892 344.17046323 439.09130859 343.74511719 C443.72281933 342.38822502 448.33274001 340.97441377 452.921875 339.48046875 C456.22756602 338.71618304 458.93708805 338.49753253 462.05444336 339.97119141 C462.72612549 340.42671387 463.39780762 340.88223633 464.08984375 341.3515625 C464.86247559 341.86581787 465.63510742 342.38007324 466.43115234 342.90991211 C467.25824707 343.47589111 468.0853418 344.04187012 468.9375 344.625 C470.74009833 345.82800313 472.54351256 347.02978443 474.34765625 348.23046875 C475.27980957 348.8548584 476.21196289 349.47924805 477.17236328 350.12255859 C481.69782175 353.12728797 486.28534653 356.03215694 490.875 358.9375 C492.72663964 360.11315976 494.5782017 361.28894173 496.4296875 362.46484375 C497.34975586 363.04862793 498.26982422 363.63241211 499.21777344 364.23388672 C503.81447411 367.15179938 508.40703978 370.07620468 513 373 C514.83331322 374.16669827 516.66664656 375.33336492 518.5 376.5 C529.49999999 383.5 529.49999999 383.5 532.25073242 385.25048828 C534.08159753 386.41556948 535.9124894 387.58060864 537.7434082 388.74560547 C542.36472713 391.68618321 546.9855592 394.62752092 551.60546875 397.5703125 C553.46612059 398.75524797 555.32679748 399.94014411 557.1875 401.125 C558.08750732 401.69822998 558.98751465 402.27145996 559.91479492 402.86206055 C564.46043931 405.75519134 569.01094155 408.64026125 573.5703125 411.51171875 C574.45307861 412.06778809 575.33584473 412.62385742 576.24536133 413.19677734 C577.92150679 414.25172082 579.598395 415.30548537 581.27612305 416.35791016 C582.01644775 416.82374512 582.75677246 417.28958008 583.51953125 417.76953125 C584.17026611 418.17792236 584.82100098 418.58631348 585.49145508 419.00708008 C587 420 587 420 588 421 C589.52078772 450.3422571 583.94074679 480.40931795 578 509 C577.80776855 509.93779297 577.61553711 510.87558594 577.41748047 511.84179688 C571.31352386 540.75690495 560.85619763 569.72611614 548.22314453 596.40820312 C547.04668498 598.90107629 545.9073249 601.40765428 544.77734375 603.921875 C536.1877743 622.83176256 525.66418212 640.82886082 514 658 C513.5504618 658.71373716 513.1009236 659.42747433 512.63776302 660.16283989 C511 662 511 662 508.9510355 662.58030891 C507.76430697 662.6372508 507.76430697 662.6372508 506.55360413 662.69534302 C505.64229233 662.74843628 504.73098053 662.80152954 503.79205322 662.85623169 C502.79341248 662.89481293 501.79477173 662.93339417 500.76586914 662.97314453 C499.71135056 663.02903748 498.65683197 663.08493042 497.57035828 663.14251709 C494.05927544 663.32408259 490.54752911 663.47838608 487.03515625 663.6328125 C484.56969357 663.7551268 482.10431605 663.87916877 479.63902283 664.00485229 C473.775234 664.29972531 467.91083355 664.57765161 462.045834 664.84728801 C454.87676607 665.17773823 447.70891553 665.53198678 440.54101562 665.88671875 C431.75339286 666.32003119 422.96554324 666.74788333 414.17726707 667.16773701 C401.46853589 667.77548384 388.76226671 668.41529302 376.05859375 669.12109375 C375.34848711 669.16011433 374.63838047 669.1991349 373.90675545 669.23933792 C366.45090426 669.65067075 359.00862206 670.12521001 351.56900024 670.76942444 C345.9418593 671.13757733 341.10742348 671.30202434 336.56640625 667.625 C333.85979799 664.96672403 331.65249058 662.00868905 329.44970703 658.92919922 C326.90329446 655.5405579 323.93044794 652.5550128 321 649.5 C319.81572948 648.23622646 318.63342243 646.97060999 317.453125 645.703125 C316.5878418 644.7759668 316.5878418 644.7759668 315.70507812 643.83007812 C311.59454977 639.4182052 307.50529457 634.98693135 303.42578125 630.54638672 C301.96689473 628.96409439 300.49963493 627.38988337 299.03125 625.81640625 C298.10401363 624.81524588 297.17692352 623.81395003 296.25 622.8125 C295.43015625 621.93207031 294.6103125 621.05164063 293.765625 620.14453125 C292 618 292 618 292 616 C293.49325434 614.81149144 295.04901283 613.7013947 296.625 612.625 C313.98609481 600.24636225 330.1429417 585.01087714 343 568 C343.50031738 567.3596582 344.00063477 566.71931641 344.51611328 566.05957031 C361.11700935 544.79919803 373.37457817 521.43462172 382.63720703 496.16113281 C383.12315086 494.83850937 383.12315086 494.83850937 383.61891174 493.48916626 C384.41340249 491.32640116 385.20707511 489.16333957 386 487 C385.26502604 487.00515373 384.53005207 487.01030746 383.77280617 487.01561737 C359.72358209 487.18388606 335.67431158 487.34474711 311.625 487.5 C310.70489875 487.50594854 309.78479751 487.51189708 308.8368144 487.51802588 C257.8284769 487.84734335 206.82201141 488.09845384 155.8125 488.0625 C154.5888398 488.06164398 153.3651796 488.06078796 152.10443878 488.05990601 C137.73627528 488.04906042 123.36813635 488.02992386 109 488 C110.83576881 493.50917081 112.67171863 499.01828127 114.5078125 504.52734375 C114.78194096 505.3498506 115.05606941 506.17235744 115.33850479 507.01978874 C118.61465457 516.84924999 121.89317595 526.67790358 125.1796875 536.50390625 C132.9909051 559.86697073 140.70406811 583.25941911 148.30331421 606.69226074 C151.64080321 616.98159334 154.99613018 627.26510545 158.3510437 637.54876709 C159.36057949 640.64329683 160.36990371 643.73789549 161.37915039 646.83251953 C162.91930804 651.55505398 164.45960787 656.27754203 166 661 C202.43759415 658.30938421 237.60880156 648.24024986 269.54248047 630.31518555 C270.35088379 629.86699463 271.15928711 629.41880371 271.9921875 628.95703125 C272.69714355 628.55460205 273.40209961 628.15217285 274.12841797 627.73754883 C276 627 276 627 279 628 C280.5375705 629.92724947 281.93113949 631.8400174 283.3125 633.875 C284.2067635 635.15994812 285.10268871 636.44374087 286 637.7265625 C286.48210938 638.41782227 286.96421875 639.10908203 287.4609375 639.82128906 C290.18372325 643.67568944 293.00245819 647.45900661 295.8125 651.25 C302.13846639 659.80651948 308.44428685 668.38122143 314.59033203 677.06835938 C315.52542957 678.34970536 316.50098173 679.60253426 317.51513672 680.82226562 C319.84563304 683.70710719 321.05591612 685.27931621 320.76318359 689.05224609 C320.52455711 690.37111458 320.26830076 691.68684678 320 693 C319.84880203 693.77843262 319.69760406 694.55686523 319.54182434 695.35888672 C318.9974928 698.10516014 318.42901526 700.84561984 317.85546875 703.5859375 C317.64440994 704.60112457 317.43335114 705.61631165 317.21589661 706.66226196 C316.76895323 708.80908338 316.32090652 710.95567536 315.87182617 713.10205078 C315.19710041 716.32908382 314.52700039 719.5570518 313.85742188 722.78515625 C311.81700564 732.58418175 309.71748225 742.35585887 307.36932373 752.08586121 C306.11687679 757.33932272 305.09965888 762.61700845 304.13726807 767.93025208 C302.3803957 777.54161546 300.1497126 787.0545977 297.97412109 796.578125 C295.72517518 806.4516787 295.72517518 806.4516787 293.94140625 816.41796875 C292.15717779 827.85980386 292.15717779 827.85980386 289.13671875 830.8359375 C286.42466393 832.04838554 283.92842354 832.50146636 281 833 C279.24748302 833.54905445 277.49540277 834.09985097 275.75048828 834.67260742 C254.53345057 841.459263 232.06452543 846.09175573 210 849 C208.99794525 849.13308563 208.99794525 849.13308563 207.97564697 849.26885986 C161.24482693 855.41000288 112.21073275 856.1493744 65.99804688 845.67626953 C63.69424543 845.15660096 61.38919357 844.65079849 59.08007812 844.15576172 C29.42792942 837.79314212 29.42792942 837.79314212 15.4375 833.25 C14.58800781 832.98082764 13.73851562 832.71165527 12.86328125 832.43432617 C7.35659951 830.53790431 7.35659951 830.53790431 5.87011719 828.2956543 C4.78746373 825.43925968 4.14724263 822.61971643 3.51953125 819.62890625 C3.24625 818.34757813 2.97296875 817.06625 2.69140625 815.74609375 C2.54848145 815.06530762 2.40555664 814.38452148 2.25830078 813.68310547 C1.49403378 810.04760537 0.71080025 806.41622397 -0.07421875 802.78515625 C-0.23433441 802.04403595 -0.39445007 801.30291565 -0.55941772 800.53933716 C-2.09076297 793.49773131 -3.77827805 786.49735443 -5.5 779.5 C-8.1741593 768.60336263 -10.63700497 757.67519652 -13.00286865 746.70877075 C-14.93551198 737.7576727 -16.95803642 728.83537504 -19.125 719.9375 C-21.11673756 711.7204184 -23.0795126 703.49849649 -24.9375 695.25 C-25.16131348 694.29085693 -25.38512695 693.33171387 -25.61572266 692.34350586 C-25.81343262 691.45155518 -26.01114258 690.55960449 -26.21484375 689.640625 C-26.39136475 688.86235352 -26.56788574 688.08408203 -26.74975586 687.28222656 C-27.23386662 682.86713645 -26.16060256 679.7602397 -23.55078125 676.2421875 C-23.03966797 675.54416016 -22.52855469 674.84613281 -22.00195312 674.12695312 C-21.44443359 673.38380859 -20.88691406 672.64066406 -20.3125 671.875 C-19.73306641 671.08802734 -19.15363281 670.30105469 -18.55664062 669.49023438 C-16.71200339 666.9877888 -14.85612108 664.49393499 -13 662 C-11.24372036 659.62127206 -9.49055929 657.24026861 -7.73754883 654.85913086 C-6.58096596 653.28879781 -5.423254 651.71929572 -4.2644043 650.15063477 C1.89057541 641.81538879 7.951577 633.41275124 14 625 C18.70598789 625.56579625 22.25139528 627.68641076 26.25 630.0625 C59.97414092 649.44161455 98.44192846 660.6734789 137.375 661.625 C138.70835439 661.66333719 140.0416882 661.70239688 141.375 661.7421875 C144.58320577 661.83517897 147.79142401 661.92102164 151 662 C146.85652751 647.86052432 142.38906455 633.84477628 137.77236938 619.85324097 C135.76489098 613.76758651 133.76664269 607.67890699 131.76953125 601.58984375 C131.36391464 600.35317459 130.95829803 599.11650543 130.54039001 597.84236145 C126.73638533 586.22681166 123.01772283 574.58485104 119.3125 562.9375 C112.59340619 541.8259462 105.68844131 520.7778128 98.75397873 499.7363205 C91.38306358 477.36963762 84.09314324 454.98071745 76.95898438 432.53710938 C76.65966003 431.59588226 76.36033569 430.65465515 76.05194092 429.68490601 C75.48268672 427.89443007 74.91401562 426.10376861 74.3460083 424.31289673 C73.08391138 420.34576576 71.80280425 416.38740875 70.46582031 412.44482422 C70.22904572 411.74622787 69.99227112 411.04763153 69.74832153 410.3278656 C69.12116205 408.48894209 68.48691691 406.65243923 67.85205078 404.81616211 C67 402 67 402 67 399 C57.83127838 405.23323173 48.75738247 411.57678273 39.78564453 418.09057617 C34.02234286 422.27214568 28.21623472 426.38861507 22.39038086 430.48242188 C17.26803484 434.08832663 12.19171244 437.75397031 7.125 441.4375 C0.94841239 445.92548069 -5.30345079 450.28141847 -11.625 454.5625 C-18.21002806 459.02390655 -24.6146533 463.65731157 -30.93969727 468.47851562 C-36.81660522 472.92914576 -42.88342925 477.07112282 -48.98632812 481.20385742 C-55.88740484 485.88884348 -62.61837441 490.77718146 -69.31298828 495.75097656 C-72.00882131 497.74690735 -74.72327149 499.71665891 -77.4375 501.6875 C-78.76587891 502.65236328 -78.76587891 502.65236328 -80.12109375 503.63671875 C-80.74113281 504.08660156 -81.36117187 504.53648437 -82 505 C-81.44310366 510.79549754 -79.18762192 515.45404404 -76.6875 520.625 C-76.2438208 521.54506836 -75.8001416 522.46513672 -75.34301758 523.41308594 C-67.60668686 539.15719758 -58.40383954 553.55516671 -47.42089844 567.22070312 C-46.21771242 568.72737318 -45.04655386 570.25953402 -43.8828125 571.796875 C-33.23531768 585.56592453 -20.00328511 598.65835128 -6 609 C-4.90558594 609.80824219 -4.90558594 609.80824219 -3.7890625 610.6328125 C-2.20789483 611.77650295 -0.60702588 612.89293773 1 614 C-0.58939426 617.93214301 -3.16342502 620.33020346 -6.1875 623.25 C-10.05470332 626.99280378 -13.6477299 630.84131125 -17.16772461 634.91162109 C-20.92461425 639.19362429 -24.86444556 643.31221023 -28.8347168 647.39624023 C-32.588418 651.28756724 -35.97208545 655.05879488 -38.78955078 659.68701172 C-41.93579787 663.56156609 -44.62086081 666.58694784 -49.64051819 667.45843124 C-52.85065231 667.57725278 -56.01414835 667.52441005 -59.22436523 667.40600586 C-60.41498031 667.38320273 -61.60559538 667.36039961 -62.8322897 667.33690548 C-66.55647634 667.25582076 -70.27733172 667.13287862 -74 667 C-75.12528736 666.96516132 -76.25057472 666.93032265 -77.4099617 666.89442825 C-85.30939602 666.64825401 -93.20283019 666.30379836 -101.09765625 665.94140625 C-103.59750548 665.83116377 -106.09737899 665.7214709 -108.59727478 665.61228943 C-115.10229826 665.32684241 -121.60699374 665.03452814 -128.1116333 664.74047852 C-135.97084557 664.38643697 -143.83041595 664.04045474 -151.68994045 663.69342709 C-157.81365833 663.4229158 -163.93731777 663.15128447 -170.06080627 662.87562561 C-171.75032488 662.80068327 -171.75032488 662.80068327 -173.47397518 662.72422695 C-175.68804376 662.62408598 -177.90191762 662.51953008 -180.11555576 662.4102869 C-185.82554852 662.13755369 -191.5132639 661.97517648 -197.23019409 661.96725464 C-198.41147857 661.95423026 -199.59276304 661.94120588 -200.80984402 661.92778683 C-203.05882352 661.90607001 -205.30833536 661.91305464 -207.55704594 661.95405674 C-214.90589949 661.84684097 -214.90589949 661.84684097 -218.11901188 659.35987091 C-220.95492168 656.14850946 -223.20853336 652.76110753 -224.84765625 648.7890625 C-226.53797681 644.9490365 -228.46278697 641.45320817 -230.68286133 637.89770508 C-258.62704203 592.84661788 -277.21169783 540.13061061 -286 488 C-286.18691406 486.89366211 -286.37382812 485.78732422 -286.56640625 484.64746094 C-289.1422 469.0891263 -290.93553311 453.57006061 -291.78466797 437.82177734 C-291.98112936 435.24728674 -292.33584185 432.77857276 -292.78515625 430.23828125 C-293.39924623 426.10423323 -293.49735574 423.00519696 -292 419 C-287.3628593 414.2823823 -281.30768133 411.36981677 -275.50048828 408.34521484 C-271.95826042 406.43956404 -268.68002226 404.22247036 -265.375 401.9375 C-264.15504001 401.11511553 -262.93367698 400.29480865 -261.7109375 399.4765625 C-261.1034668 399.06954102 -260.49599609 398.66251953 -259.87011719 398.24316406 C-256.59977533 396.06919791 -253.30005809 393.94098118 -250 391.8125 C-243.21599217 387.43670891 -236.4476231 383.03760859 -229.6875 378.625 C-221.65698778 373.38388805 -213.62135091 368.15081685 -205.57910156 362.92773438 C-201.05845925 359.99084837 -196.54111194 357.04900466 -192.02734375 354.1015625 C-191.01349609 353.43962891 -189.99964844 352.77769531 -188.95507812 352.09570312 C-187.01200433 350.82673131 -185.06926905 349.55724091 -183.12695312 348.28710938 C-181.32852372 347.11265118 -179.52697903 345.94294789 -177.72216797 344.77832031 C-175.81403251 343.5317859 -173.92369366 342.25778114 -172.04736328 340.96386719 C-171.08427246 340.31321289 -170.12118164 339.66255859 -169.12890625 338.9921875 C-168.26467041 338.39519043 -167.40043457 337.79819336 -166.51000977 337.18310547 C-163.40749246 335.72071865 -162.23024496 335.98865725 -159 337 C-158.1140918 337.25362305 -157.22818359 337.50724609 -156.31542969 337.76855469 C-155.36055664 338.06665039 -154.40568359 338.36474609 -153.421875 338.671875 C-151.81723389 339.17001709 -151.81723389 339.17001709 -150.18017578 339.67822266 C-149.04821777 340.03190918 -147.91625977 340.3855957 -146.75 340.75 C-139.22077475 343.08543972 -131.69251742 345.41641428 -124.125 347.625 C-123.47885742 347.81529785 -122.83271484 348.0055957 -122.16699219 348.20166016 C-118.30322738 349.33744243 -114.43173422 350.4416313 -110.5546875 351.53125 C-108.70305958 352.06227194 -106.85149611 352.59351865 -105 353.125 C-104.11973145 353.36686035 -103.23946289 353.6087207 -102.33251953 353.85791016 C-101.52153809 354.09300293 -100.71055664 354.3280957 -99.875 354.5703125 C-99.15054688 354.77414551 -98.42609375 354.97797852 -97.6796875 355.18798828 C-97.12539062 355.45595215 -96.57109375 355.72391602 -96 356 C-94.72619795 359.82140616 -95.44575107 361.88953683 -96.3125 365.8125 C-96.9116463 368.53934631 -97.47793485 371.2582588 -98 374 C-98.17716553 374.92087402 -98.35433105 375.84174805 -98.53686523 376.79052734 C-100.4992413 388.46918763 -100.43991258 400.18679314 -100.4375 412 C-100.4385675 413.10749603 -100.43963501 414.21499207 -100.44073486 415.35604858 C-100.40612129 440.25737038 -97.27736442 463.34702715 -89.47143555 487.09423828 C-89 489 -89 489 -89 493 C-79.29545907 486.2155194 -69.67799384 479.32986059 -60.16088867 472.28466797 C-54.80045632 468.31885059 -49.41252237 464.39438308 -44 460.5 C-37.80336797 456.03991728 -31.64015924 451.53750756 -25.5 447 C-19.35983731 442.46248989 -13.19645339 437.96033424 -7 433.5 C2.38780773 426.74016251 11.69696495 419.87582656 21 413 C31.0401124 405.57940327 41.09797508 398.18803961 51.23071289 390.89428711 C56.68106937 386.9660112 62.09683174 382.99287964 67.5 379 C73.64016269 374.46248989 79.80354661 369.96033424 86 365.5 C96.28066343 358.09724782 106.4706506 350.57288246 116.65332031 343.03613281 C118.4332476 341.71874183 120.21359343 340.40191613 121.99438477 339.08569336 C123.67556246 337.84306986 125.35577691 336.59914186 127.03491211 335.35375977 C127.78780518 334.79744873 128.54069824 334.2411377 129.31640625 333.66796875 C129.98099854 333.17578857 130.64559082 332.6836084 131.33032227 332.17651367 C133 331 133 331 135 330 C133.87097184 326.61291551 133.18270273 326.12532029 130.37890625 324.1015625 C129.61747314 323.54645996 128.85604004 322.99135742 128.0715332 322.41943359 C127.24355225 321.82727051 126.41557129 321.23510742 125.5625 320.625 C124.70938232 320.0057666 123.85626465 319.3865332 122.97729492 318.74853516 C120.32355315 316.82481082 117.6625911 314.91145182 115 313 C113.43201067 311.87018153 111.86428945 310.73999086 110.296875 309.609375 C108.0520344 307.9901258 105.80705719 306.37108252 103.56054688 304.75415039 C98.02536109 300.7631749 92.55435467 296.69325399 87.10424805 292.5871582 C75.03042647 283.49500425 62.82881224 274.57958256 50.55908203 265.75415039 C44.99868171 261.74507859 39.50912016 257.64920011 34.03833008 253.51904297 C28.3326244 249.22266704 22.54491468 245.04600137 16.74389648 240.87963867 C10.78358197 236.58953285 4.89501845 232.20998743 -0.96289062 227.78125 C-5.47458047 223.74348116 -5.47458047 223.74348116 -10.85546875 222.0859375 C-16.36549697 224.43447412 -20.71427831 229.86632949 -25 234 C-25.91362305 234.87277588 -25.91362305 234.87277588 -26.84570312 235.76318359 C-35.19363213 243.76795833 -42.86883051 251.98692257 -49.74121094 261.296875 C-50.97069396 262.96034931 -52.22216212 264.60527552 -53.4765625 266.25 C-69.42692009 287.50660264 -83.81209187 313.97970175 -90 340 C-95.13345396 339.32818088 -99.55375535 337.13295473 -104.2265625 335.02734375 C-105.1288559 334.62600723 -106.03114929 334.22467072 -106.96078491 333.81117249 C-109.85101662 332.52472968 -112.7381508 331.23151326 -115.625 329.9375 C-118.45148249 328.67441261 -121.27862593 327.41284948 -124.10687256 326.15371704 C-125.97642237 325.32031968 -127.84447355 324.48355218 -129.71099854 323.6434021 C-134.28020819 321.59796833 -138.85777881 319.6387801 -143.53027344 317.84033203 C-144.40372406 317.49756729 -145.27717468 317.15480255 -146.17709351 316.801651 C-147.81621662 316.16430417 -149.46332884 315.54698266 -151.11904907 314.9540863 C-155.06981159 313.40491846 -156.64250047 312.6178592 -158.8293457 308.83837891 C-159.24769963 307.56784079 -159.63641445 306.28728112 -160 305 C-160.48595838 303.56459686 -160.9727413 302.12947269 -161.46020508 300.69458008 C-161.98346818 299.05400546 -162.50300985 297.4122409 -163.01953125 295.76953125 C-163.31054214 294.85469971 -163.60155304 293.93986816 -163.90138245 292.99731445 C-164.53806011 290.99505862 -165.17322668 288.99232182 -165.80706787 286.98916626 C-167.57057264 281.41736688 -169.3463683 275.84948351 -171.12109375 270.28125 C-171.50416687 269.07853958 -171.88723999 267.87582916 -172.28192139 266.63667297 C-177.26322668 251.01258269 -182.32121443 235.41326199 -187.375 219.8125 C-188.06145286 217.6931427 -188.74787501 215.57377546 -189.43426609 213.45439816 C-189.88313351 212.06855575 -190.33208433 210.68274036 -190.78111935 209.29695225 C-191.87991484 205.90555846 -192.97735496 202.51373858 -194.07176208 199.1209259 C-196.08787311 192.87487229 -198.11592718 186.63357542 -200.1884594 180.4059763 C-201.1449964 177.5285211 -202.09387249 174.6485681 -203.04195023 171.76831627 C-203.49429973 170.40118444 -203.95036836 169.03527694 -204.4103508 167.67069435 C-205.04415214 165.78969253 -205.66425586 163.90409197 -206.28369141 162.01831055 C-206.64024811 160.94937057 -206.99680481 159.8804306 -207.36416626 158.77909851 C-208.0053637 155.97655636 -208.03077688 154.64064556 -207 152 C-205.92773438 150.34350586 -205.92773438 150.34350586 -204.59375 148.71484375 C-204.10197266 148.10753418 -203.61019531 147.50022461 -203.10351562 146.87451172 C-202.30977539 145.91569092 -202.30977539 145.91569092 -201.5 144.9375 C-200.95537109 144.26992676 -200.41074219 143.60235352 -199.84960938 142.91455078 C-198.74746109 141.56471053 -197.64266783 140.21702532 -196.53515625 138.87158203 C-195.21911517 137.26713373 -193.92029207 135.64858925 -192.625 134.02734375 C-187.6472603 127.81431939 -182.35738302 121.95746569 -176.92578125 116.14453125 C-174.30585318 113.34008917 -171.74025074 110.49086497 -169.1875 107.625 C-163.86190362 101.69596374 -158.32742837 96.20686883 -152.2890625 91.0078125 C-150.0644397 89.05652219 -147.8885466 87.05859484 -145.71972656 85.0456543 C-139.67505773 79.44114061 -133.46588781 74.11882785 -127 69 C-126.05125 68.24460937 -125.1025 67.48921875 -124.125 66.7109375 C-89.6459953 39.70824759 -51.57615267 18.38911096 -10.95703125 2.12890625 C-9.93198486 1.71842041 -8.90693848 1.30793457 -7.85083008 0.88500977 C-4.98258708 -0.00540566 -2.97459076 -0.35302289 0 0 Z " fill="#FEFEFE" transform="translate(351,86)"/>
</svg>
